<?xml version="1.0" encoding="UTF-8" standalone="no"?>
<!DOCTYPE svg PUBLIC "-//W3C//DTD SVG 1.1//EN"
 "http://www.w3.org/Graphics/SVG/1.1/DTD/svg11.dtd">
<!-- Generated by graphviz version 12.2.1 (20241206.2353)
 -->
<!-- Title: app/Main.cpp Pages: 1 -->
<svg width="198pt" height="140pt"
 viewBox="0.00 0.00 197.75 140.00" xmlns="http://www.w3.org/2000/svg" xmlns:xlink="http://www.w3.org/1999/xlink">
<g id="graph0" class="graph" transform="scale(1 1) rotate(0) translate(4 136)">
<title>app/Main.cpp</title>
<!-- Node1 -->
<g id="Node000001" class="node">
<title>Node1</title>
<g id="a_Node000001"><a xlink:title=" ">
<polygon fill="#999999" stroke="#666666" points="137,-132 62.5,-132 62.5,-112 137,-112 137,-132"/>
<text text-anchor="middle" x="99.75" y="-118.5" font-family="Helvetica,sans-Serif" font-size="10.00">app/Main.cpp</text>
</a>
</g>
</g>
<!-- Node2 -->
<g id="Node000002" class="node">
<title>Node2</title>
<g id="a_Node000002"><a xlink:href="_main_8h.html" target="_top" xlink:title=" ">
<polygon fill="white" stroke="#666666" points="49.38,-76 4.12,-76 4.12,-56 49.38,-56 49.38,-76"/>
<text text-anchor="middle" x="26.75" y="-62.5" font-family="Helvetica,sans-Serif" font-size="10.00">Main.h</text>
</a>
</g>
</g>
<!-- Node1&#45;&gt;Node2 -->
<g id="edge1_Node000001_Node000002" class="edge">
<title>Node1&#45;&gt;Node2</title>
<g id="a_edge1_Node000001_Node000002"><a xlink:title=" ">
<path fill="none" stroke="#63b8ff" d="M87.03,-111.59C76.36,-103.7 60.87,-92.24 48.27,-82.92"/>
<polygon fill="#63b8ff" stroke="#63b8ff" points="50.66,-80.33 40.54,-77.2 46.49,-85.96 50.66,-80.33"/>
</a>
</g>
</g>
<!-- Node4 -->
<g id="Node000004" class="node">
<title>Node4</title>
<g id="a_Node000004"><a xlink:title=" ">
<polygon fill="#e0e0e0" stroke="#999999" points="132.12,-76 67.38,-76 67.38,-56 132.12,-56 132.12,-76"/>
<text text-anchor="middle" x="99.75" y="-62.5" font-family="Helvetica,sans-Serif" font-size="10.00">Windows.h</text>
</a>
</g>
</g>
<!-- Node1&#45;&gt;Node4 -->
<g id="edge3_Node000001_Node000004" class="edge">
<title>Node1&#45;&gt;Node4</title>
<g id="a_edge3_Node000001_Node000004"><a xlink:title=" ">
<path fill="none" stroke="#63b8ff" d="M99.75,-111.59C99.75,-105.01 99.75,-95.96 99.75,-87.73"/>
<polygon fill="#63b8ff" stroke="#63b8ff" points="103.25,-87.81 99.75,-77.81 96.25,-87.81 103.25,-87.81"/>
</a>
</g>
</g>
<!-- Node5 -->
<g id="Node000005" class="node">
<title>Node5</title>
<g id="a_Node000005"><a xlink:title=" ">
<polygon fill="#e0e0e0" stroke="#999999" points="189.75,-76 149.75,-76 149.75,-56 189.75,-56 189.75,-76"/>
<text text-anchor="middle" x="169.75" y="-62.5" font-family="Helvetica,sans-Serif" font-size="10.00">string</text>
</a>
</g>
</g>
<!-- Node1&#45;&gt;Node5 -->
<g id="edge4_Node000001_Node000005" class="edge">
<title>Node1&#45;&gt;Node5</title>
<g id="a_edge4_Node000001_Node000005"><a xlink:title=" ">
<path fill="none" stroke="#63b8ff" d="M111.94,-111.59C122.08,-103.77 136.74,-92.46 148.76,-83.19"/>
<polygon fill="#63b8ff" stroke="#63b8ff" points="150.72,-86.1 156.5,-77.22 146.44,-80.56 150.72,-86.1"/>
</a>
</g>
</g>
<!-- Node3 -->
<g id="Node000003" class="node">
<title>Node3</title>
<g id="a_Node000003"><a xlink:title=" ">
<polygon fill="#e0e0e0" stroke="#999999" points="53.5,-20 0,-20 0,0 53.5,0 53.5,-20"/>
<text text-anchor="middle" x="26.75" y="-6.5" font-family="Helvetica,sans-Serif" font-size="10.00">iostream</text>
</a>
</g>
</g>
<!-- Node2&#45;&gt;Node3 -->
<g id="edge2_Node000002_Node000003" class="edge">
<title>Node2&#45;&gt;Node3</title>
<g id="a_edge2_Node000002_Node000003"><a xlink:title=" ">
<path fill="none" stroke="#63b8ff" d="M26.75,-55.59C26.75,-49.01 26.75,-39.96 26.75,-31.73"/>
<polygon fill="#63b8ff" stroke="#63b8ff" points="30.25,-31.81 26.75,-21.81 23.25,-31.81 30.25,-31.81"/>
</a>
</g>
</g>
</g>
</svg>
